<svg xmlns="http://www.w3.org/2000/svg" viewBox="0 0 32 32" width="32" height="32">
  <rect width="32" height="32" rx="6" fill="#1a2e27"/>
  <line x1="16" y1="29" x2="16" y2="16" stroke="#8aab97" stroke-width="1" stroke-linecap="round"/>
  <path d="M16 20 C16 20 10 17 9 12 C11.5 12 14 15 16 15 C18 15 20.5 12 23 12 C22 17 16 20 16 20Z" 
        fill="rgba(138,171,151,0.22)" stroke="#8aab97" stroke-width="0.7"/>
  <path d="M16 15 C16 15 11 12 10 7 C12.5 7 14.5 10 16 10 C17.5 10 19.5 7 22 7 C21 12 16 15 16 15Z" 
        fill="rgba(138,171,151,0.18)" stroke="#8aab97" stroke-width="0.6"/>
  <circle cx="16" cy="4.5" r="2.5" fill="rgba(196,168,130,0.3)" stroke="#c4a882" stroke-width="0.7"/>
</svg>